<svg id="Camada_12" data-name="Camada 12" xmlns="http://www.w3.org/2000/svg" viewBox="0 0 318.78 115.73">
    <defs>
        <style>.cls-1{fill:#cd191e;}.cls-2{fill:#2f9e41;}.cls-3{fill:#311218;}</style>
    </defs>
    <g id="Jobs">
        <g id="s">
            <path class="cls-1" d="M407.79,258.44a4,4,0,0,0-1.86-6c-10.38-3.85-22-.86-28.2,8s-4.89,20.85,2.35,29.22a4,4,0,0,0,6.3-.36Z" transform="translate(-89.73 -192.3)" />
            <path class="cls-2" d="M373,299.88a4,4,0,0,0,1.75,6c10.78,4.56,23.06,1.84,29.34-7.22s4.53-21.58-3.57-30.08a4,4,0,0,0-6.15.52Z" transform="translate(-89.73 -192.3)" />
            <path class="cls-3" d="M400.47,268.56a4,4,0,0,0-6.15.52l-14.26,20.55,0,0a4,4,0,0,0,6.3-.36l14.26-20.55Z" transform="translate(-89.73 -192.3)" />
        </g>
        <g id="b">
            <path class="cls-2" d="M341.66,250.64a28.8,28.8,0,0,0-8.19.67,2,2,0,0,1-2.48-1.94V225.46c0-5.68-4.29-10.28-9.64-10.28h-.24c-5.46,0-9.89,4.74-9.89,10.6,0,12.92,0,35.26,0,53.35,0,0,0,.07,0,.1s0,.07,0,.1V297.1c0,5.86,4.42,10.6,9.88,10.6a9.38,9.38,0,0,0,5.58-1.86,2.06,2.06,0,0,1,2-.23,28.65,28.65,0,0,0,39.75-28A28.78,28.78,0,0,0,341.66,250.64Z" transform="translate(-89.73 -192.3)" />
            <circle class="cls-3" cx="250.27" cy="87.1" r="17.64" />
        </g>
        <g id="o">
            <circle class="cls-2" cx="187.55" cy="86.93" r="28.64" />
            <circle class="cls-3" cx="187.55" cy="86.93" r="17.61" />
        </g>
        <g id="J">
            <path class="cls-2" d="M232,192.3H200.41a11.78,11.78,0,0,0-11.91,11.31A11.52,11.52,0,0,0,200,215.35h18.34a2,2,0,0,1,2,2v61.13a11.39,11.39,0,0,0,11.39,11.38h0a11.39,11.39,0,0,0,11.39-11.39V203.35A11.06,11.06,0,0,0,232,192.3Z" transform="translate(-89.73 -192.3)" />
            <path class="cls-1" d="M220.76,277.8c-.66,3.75-1.11,5.36-4.82,6.8-3.54,1.37-7.68-.09-10.83-2-12.66-7.48-24.14,12.22-11.5,19.68,9.27,5.48,20.95,7.4,31.08,3.19,9.11-3.79,16.32-11.79,18.05-21.66,1.06-6.06-1.63-12.28-8-14-5.5-1.52-13,1.86-14,8Z" transform="translate(-89.73 -192.3)" />
        </g>
    </g>
    <g id="IF">
        <g id="F">
            <path class="cls-2" d="M170.78,192.3H131.12a11.39,11.39,0,0,0-11.39,11.39h0v92.49a11.63,11.63,0,0,0,11.17,11.76,11.39,11.39,0,0,0,11.61-11.39V264.36a2,2,0,0,1,2-2h19.2a10.65,10.65,0,0,0,10.66-10.65v-1.47a10.66,10.66,0,0,0-10.66-10.66h-19.2a2,2,0,0,1-2-2v-20.5a2,2,0,0,1,2-2h26.27a11.39,11.39,0,0,0,11.39-11.39h0A11.39,11.39,0,0,0,170.78,192.3Z" transform="translate(-89.73 -192.3)" />
        </g>
        <g id="I">
            <path class="cls-2" d="M101.29,286.8A12.94,12.94,0,0,1,91.12,282c-.46-.57-.61-.48-.34.2L95,292.67,98.78,302a.49.49,0,0,0,.4.31,13.94,13.94,0,0,0,4.21,0,.52.52,0,0,0,.4-.32l3.78-9.33,4.22-10.43c.28-.68.12-.77-.33-.2A12.94,12.94,0,0,1,101.29,286.8Z" transform="translate(-89.73 -192.3)" />
            <path class="cls-2" d="M101.29,303.83a11.45,11.45,0,0,1-1.56-.12.2.2,0,0,0-.21.28l1.58,3.79a.2.2,0,0,0,.37,0l1.59-3.79a.21.21,0,0,0-.22-.28A11.18,11.18,0,0,1,101.29,303.83Z" transform="translate(-89.73 -192.3)" />
            <path class="cls-2" d="M101.12,220.81a17.45,17.45,0,0,1-9.9-3.06,11.18,11.18,0,0,0-1.49,5.6v47.82a11.32,11.32,0,0,0,11.32,11.33h.13a11.33,11.33,0,0,0,11.33-11.33V223.35a11.19,11.19,0,0,0-1.5-5.6A17.44,17.44,0,0,1,101.12,220.81Z" transform="translate(-89.73 -192.3)" />
            <circle class="cls-1" cx="11.39" cy="11.39" r="11.39" />
        </g>
    </g>
</svg>