<svg xmlns="http://www.w3.org/2000/svg" viewBox="0 0 323.6 115.91">
  <defs>
    <style>
      .cls-1 {
        isolation: isolate;
      }

      .cls-2, .cls-7 {
        fill: #2d9041;
      }

      .cls-3 {
        fill: #900;
      }

      .cls-4 {
        fill: #870019;
      }

      .cls-5 {
        fill: #720019;
      }

      .cls-6 {
        fill: #870016;
      }

      .cls-7, .cls-8 {
        mix-blend-mode: darken;
      }

      .cls-8, .cls-9 {
        fill: #810016;
      }
    </style>
  </defs>
  <g class="cls-1">
    <g id="IF">
      <g id="I">
        <path class="cls-2" d="M102.78,283a12.76,12.76,0,0,1-11.21-6.32l4.93,12.18,3.89,9.6a16.42,16.42,0,0,0,2.45.2,15.08,15.08,0,0,0,2.34-.19l3.89-9.61L114,276.66A12.78,12.78,0,0,1,102.78,283Z" transform="translate(-89.61 -188.76)"/>
        <path class="cls-2" d="M102.78,300a12,12,0,0,1-1.9-.16l1.9,4.56,1.9-4.56A11.78,11.78,0,0,1,102.78,300Z" transform="translate(-89.61 -188.76)"/>
        <path class="cls-2" d="M102.61,217.82a17.47,17.47,0,0,1-9.9-3.06,11.35,11.35,0,0,0-1.49,5.61v47.82a11.32,11.32,0,0,0,11.32,11.32h.14A11.32,11.32,0,0,0,114,268.19V220.37a11.35,11.35,0,0,0-1.49-5.61A17.47,17.47,0,0,1,102.61,217.82Z" transform="translate(-89.61 -188.76)"/>
        <circle class="cls-3" cx="13" cy="11.5" r="11.39"/>
        <g id="gravata">
          <g id="gravata-2" data-name="gravata">
            <g>
              <path class="cls-4" d="M106.07,224.11H99.16l-3.93,34.33a1,1,0,0,0,.14.63l6.9,10.16a.47.47,0,0,0,.33.21h0a.44.44,0,0,0,.34-.21l6.89-10.16a.9.9,0,0,0,.14-.63Z" transform="translate(-89.61 -188.76)"/>
              <path class="cls-5" d="M109.21,218.58,106.34,224c-.09.17-.45.27-.45.27a11.94,11.94,0,0,1-3.29.46,16,16,0,0,1-3.54-.53.5.5,0,0,1-.18-.2L96,218.58a.52.52,0,0,1,.45-.76h12.3A.52.52,0,0,1,109.21,218.58Z" transform="translate(-89.61 -188.76)"/>
            </g>
            <g>
              <path class="cls-6" d="M109.77,226.73l-7.16-8.91a18.5,18.5,0,0,0,9.9-3.06s2.51,3.57,3.1,6.26l-5.55,5.72A.2.2,0,0,1,109.77,226.73Z" transform="translate(-89.61 -188.76)"/>
              <path class="cls-6" d="M95.46,226.73l7.15-8.91a18.52,18.52,0,0,1-9.9-3.06s-2.51,3.57-3.1,6.26l5.55,5.72A.21.21,0,0,0,95.46,226.73Z" transform="translate(-89.61 -188.76)"/>
            </g>
          </g>
        </g>
      </g>
      <g id="F">
        <rect class="cls-2" x="31.78" width="22.78" height="115.65" rx="11.39"/>
        <rect class="cls-2" x="141.22" y="169.04" width="22.78" height="62.44" rx="11.39" transform="translate(263.26 -141.11) rotate(90)"/>
        <rect class="cls-2" x="137.32" y="220.11" width="22.78" height="54.64" rx="10.65" transform="translate(306.53 -90.04) rotate(90)"/>
      </g>
    </g>
    <g id="Camada_12" data-name="Camada 12">
      <g id="Jobs">
        <g id="o">
          <circle class="cls-7" cx="190.64" cy="86.94" r="28.7"/>
          <circle class="cls-8" cx="190.64" cy="86.94" r="17.64"/>
        </g>
        <g id="b">
          <g>
            <circle class="cls-7" cx="254.95" cy="86.94" r="28.64"/>
            <circle class="cls-8" cx="255.08" cy="87.11" r="17.64"/>
          </g>
          <path class="cls-7" d="M325.8,211.65H326c5.35,0,9.64,4.6,9.64,10.28v71.65c0,5.85-4.43,10.59-9.88,10.59h0c-5.46,0-9.88-4.74-9.88-10.59,0-17.81,0-53.52,0-71.33C315.91,216.39,320.34,211.65,325.8,211.65Z" transform="translate(-89.61 -188.76)"/>
        </g>
        <g id="J">
          <path class="cls-2" d="M189.35,200.69h0a11.53,11.53,0,0,1,11.52-11.53H232.8A11.18,11.18,0,0,1,244,200.34v.29a11.53,11.53,0,0,1-11.52,11.58H200.87A11.52,11.52,0,0,1,189.35,200.69Z" transform="translate(-89.61 -188.76)"/>
          <path class="cls-2" d="M232.59,189.16h.29A11.05,11.05,0,0,1,244,200.21v75.11a11.39,11.39,0,0,1-11.39,11.39h0a11.4,11.4,0,0,1-11.39-11.39V200.55A11.39,11.39,0,0,1,232.59,189.16Z" transform="translate(-89.61 -188.76)"/>
          <path class="cls-9" d="M221.6,274.66c-.66,3.75-1.1,5.36-4.82,6.8-3.53,1.37-7.67-.09-10.82-1.95-12.66-7.48-24.15,12.22-11.51,19.68,9.28,5.48,21,7.4,31.08,3.19,9.12-3.79,16.33-11.79,18.06-21.66,1.06-6.06-1.63-12.28-8-14-5.5-1.51-13,1.86-14,8Z" transform="translate(-89.61 -188.76)"/>
        </g>
        <g id="s">
          <path class="cls-8" d="M412.49,254.74a4,4,0,0,0-1.86-6c-10.38-3.85-22-.86-28.2,8s-4.89,20.86,2.35,29.22a4,4,0,0,0,6.3-.36Z" transform="translate(-89.61 -188.76)"/>
          <path class="cls-7" d="M377.65,296.18a4,4,0,0,0,1.75,6c10.78,4.56,23.06,1.84,29.34-7.23s4.53-21.57-3.57-30.07a4,4,0,0,0-6.15.51Z" transform="translate(-89.61 -188.76)"/>
        </g>
      </g>
    </g>
  </g>
</svg>
