<svg xmlns="http://www.w3.org/2000/svg" viewBox="0 0 336.87 115.91"><defs><style>.cls-1{isolation:isolate;}.cls-2,.cls-4{fill:#2d9041;}.cls-3{fill:#900;}.cls-4,.cls-5{mix-blend-mode:darken;}.cls-5,.cls-6{fill:#810016;}</style></defs><g class="cls-1"><g id="IF"><g id="I"><path class="cls-2" d="M21.54,103.7a12.76,12.76,0,0,1-11.21-6.32l4.93,12.19,3.89,9.59a16.41,16.41,0,0,0,2.45.21,15.08,15.08,0,0,0,2.34-.2l3.89-9.6,4.93-12.19A12.78,12.78,0,0,1,21.54,103.7Z" transform="translate(-9.98 -9.48)"/><path class="cls-2" d="M21.54,120.73a12,12,0,0,1-1.9-.17l1.9,4.56,1.9-4.56A11.77,11.77,0,0,1,21.54,120.73Z" transform="translate(-9.98 -9.48)"/><path class="cls-2" d="M21.76,36.1h-.44a11,11,0,0,1-7.9-3.36A11.34,11.34,0,0,0,10,40.9v48a11.25,11.25,0,0,0,11.17,11.33h.44A11.25,11.25,0,0,0,32.76,88.86v-48a11.32,11.32,0,0,0-3.26-8A11,11,0,0,1,21.76,36.1Z" transform="translate(-9.98 -9.48)"/><circle class="cls-3" cx="11.39" cy="11.5" r="11.39"/></g><g id="F"><rect class="cls-2" x="30.17" width="22.78" height="115.65" rx="11.39"/><rect class="cls-2" x="59.98" y="-10.24" width="22.78" height="62.44" rx="11.39" transform="translate(82.37 -59.87) rotate(90)"/><rect class="cls-2" x="56.08" y="40.83" width="22.78" height="54.64" rx="10.65" transform="translate(125.64 -8.8) rotate(90)"/></g></g><g id="Camada_12" data-name="Camada 12"><g id="Jobs"><g id="o"><circle class="cls-4" cx="189.03" cy="86.94" r="28.7"/><circle class="cls-5" cx="189.03" cy="86.94" r="17.64"/></g><g id="b"><circle class="cls-4" cx="261.63" cy="86.78" r="28.64"/><rect class="cls-5" x="234.68" y="34.49" width="23.78" height="90.41" rx="11.64" transform="translate(483.15 149.91) rotate(-180)"/></g><g id="J"><rect class="cls-2" x="123.9" y="-5.91" width="23.05" height="54.64" rx="11.52" transform="translate(146.85 -123.5) rotate(90)"/><rect class="cls-2" x="139.96" y="9.89" width="22.78" height="97.55" rx="11.39" transform="translate(292.73 107.84) rotate(-180)"/><path class="cls-6" d="M140.36,95.38c-.66,3.76-1.1,5.36-4.82,6.8-3.53,1.37-7.67-.09-10.82-2-12.66-7.48-24.15,12.22-11.51,19.69,9.28,5.48,21,7.4,31.08,3.18,9.12-3.79,16.33-11.78,18.06-21.66,1.06-6-1.63-12.28-8-14-5.5-1.51-12.95,1.87-14,8Z" transform="translate(-9.98 -9.48)"/></g><g id="s"><path class="cls-5" d="M346.85,71.68c-11.3-6.8-25.64-4.37-32.73,5.85s-4.34,24.49,6,32.7Z" transform="translate(-9.98 -9.48)"/><path class="cls-4" d="M306.78,119.86c11.62,7.47,26.51,5.36,33.66-4.94s3.91-25-7.16-33.26Z" transform="translate(-9.98 -9.48)"/></g></g></g></g></svg>