<svg xmlns="http://www.w3.org/2000/svg" viewBox="0 0 452.6 165.26"><defs><style>.cls-1{isolation:isolate;}.cls-2,.cls-6{fill:#2d9041;}.cls-3{fill:#900;}.cls-4,.cls-5{fill:#810016;}.cls-5,.cls-6{mix-blend-mode:darken;}</style></defs><g class="cls-1"><g id="IF"><g id="I"><path class="cls-2" d="M21.54,103.7a12.76,12.76,0,0,1-11.21-6.32l4.93,12.19,3.89,9.59a16.41,16.41,0,0,0,2.45.21,15.08,15.08,0,0,0,2.34-.2l3.89-9.6,4.93-12.19A12.78,12.78,0,0,1,21.54,103.7Z" transform="translate(-9.98 -9.48)"/><path class="cls-2" d="M21.54,120.73a12,12,0,0,1-1.9-.17l1.9,4.56,1.9-4.56A11.77,11.77,0,0,1,21.54,120.73Z" transform="translate(-9.98 -9.48)"/><path class="cls-2" d="M21.76,36.1h-.44a11,11,0,0,1-7.9-3.36A11.34,11.34,0,0,0,10,40.9v48a11.25,11.25,0,0,0,11.17,11.33h.44A11.25,11.25,0,0,0,32.76,88.86v-48a11.32,11.32,0,0,0-3.26-8A11,11,0,0,1,21.76,36.1Z" transform="translate(-9.98 -9.48)"/><circle class="cls-3" cx="11.39" cy="11.5" r="11.39"/></g><g id="F"><rect class="cls-2" x="30.17" width="22.78" height="115.6" rx="11.39"/><rect class="cls-2" x="59.98" y="-10.24" width="22.78" height="62.44" rx="11.39" transform="translate(82.37 -59.87) rotate(90)"/><rect class="cls-2" x="56.08" y="43.83" width="22.78" height="54.64" rx="10.65" transform="translate(128.64 -5.8) rotate(90)"/></g></g><g id="Agrupar_2" data-name="Agrupar 2"><g id="V"><path class="cls-2" d="M164.05,124.25h0a11.66,11.66,0,0,0,6.2-15.12L133.06,17a11.33,11.33,0,0,0-14.87-6.32h0A11.67,11.67,0,0,0,112,25.82l37.19,92.12A11.33,11.33,0,0,0,164.05,124.25Z" transform="translate(-9.98 -9.48)"/><path class="cls-2" d="M155.78,124.15h0A11.66,11.66,0,0,1,149.57,109l37.2-92.12a11.32,11.32,0,0,1,14.86-6.32h0a11.66,11.66,0,0,1,6.21,15.12l-37.2,92.12A11.32,11.32,0,0,1,155.78,124.15Z" transform="translate(-9.98 -9.48)"/><path class="cls-4" d="M201.63,10.56h0a11.31,11.31,0,0,0-14.86,6.31l-6.47,16h0a11.1,11.1,0,0,1,5.81-5.94,10.54,10.54,0,0,1,8.23,0l1.17.49a11,11,0,0,1,5.86,14.29l6.47-16A11.66,11.66,0,0,0,201.63,10.56Z" transform="translate(-9.98 -9.48)"/></g><g id="a"><rect class="cls-5" x="227.04" y="60.65" width="22.78" height="55" rx="11.39"/><circle class="cls-6" cx="211.47" cy="88.69" r="26.95"/></g><g id="g"><circle class="cls-6" cx="287.38" cy="88.63" r="26.95"/><path class="cls-3" d="M324.32,146.92a14.87,14.87,0,0,1-2.58,6.86,18.8,18.8,0,0,1-7.24,6.51c-4.47,2.19-8.24,3.6-13,3-3.11-.39-10-2.85-13.32-6.36" transform="translate(-9.98 -9.48)"/><path class="cls-4" d="M313.33,143.88c-1.27,8.21-11.57,10.17-17.08,5-10.68-10-26.84,6-16.12,16.12,8.08,7.6,20.09,11.68,31,8.84,11.35-3,22.31-11.76,24.17-23.88.93-6.08-1.54-12.26-8-14-5.4-1.48-13.08,1.84-14,8Z" transform="translate(-9.98 -9.48)"/><rect class="cls-5" x="302.95" y="61.13" width="22.78" height="86.6" rx="11.14"/></g><g id="a_cópia" data-name="a cópia"><rect class="cls-5" x="378.72" y="60.65" width="22.78" height="55" rx="11.39"/><circle class="cls-6" cx="363.16" cy="88.69" r="26.95"/></g><g id="S"><path class="cls-5" d="M462.58,73.86c-11-6.62-25-4.25-31.88,5.69s-4.23,23.86,5.83,31.85Z" transform="translate(-9.98 -9.48)"/><path class="cls-6" d="M423.55,120.78c11.32,7.28,25.82,5.22,32.78-4.81s3.81-24.33-7-32.39Z" transform="translate(-9.98 -9.48)"/></g></g></g></svg>