<svg xmlns="http://www.w3.org/2000/svg" viewBox="0 0 452.6 163.48"><defs><style>.cls-1{isolation:isolate;}.cls-2,.cls-6{fill:#2d9041;}.cls-3{fill:#900;}.cls-4,.cls-5{fill:#810016;}.cls-5,.cls-6{mix-blend-mode:darken;}</style></defs><g class="cls-1"><g id="IF"><g id="I"><path class="cls-2" d="M21.54,103.7a12.76,12.76,0,0,1-11.21-6.32l4.93,12.19,6.28,15.51,6.29-15.51,4.93-12.19A12.78,12.78,0,0,1,21.54,103.7Z" transform="translate(-9.98 -9.48)"/><path class="cls-2" d="M21.76,36.1h-.44a11,11,0,0,1-7.9-3.36A11.34,11.34,0,0,0,10,40.9v48a11.25,11.25,0,0,0,11.17,11.33h.44A11.25,11.25,0,0,0,32.76,88.86v-48a11.32,11.32,0,0,0-3.26-8A11,11,0,0,1,21.76,36.1Z" transform="translate(-9.98 -9.48)"/><circle class="cls-3" cx="11.39" cy="11.5" r="11.39"/></g><g id="F"><rect class="cls-2" x="30.17" width="22.78" height="113.8" rx="11.39"/><rect class="cls-2" x="59.98" y="-10.24" width="22.78" height="62.44" rx="11.39" transform="translate(82.37 -59.87) rotate(90)"/><rect class="cls-2" x="56.08" y="38.66" width="22.78" height="54.64" rx="10.65" transform="translate(123.47 -10.97) rotate(90)"/></g></g><g id="Agrupar_2" data-name="Agrupar 2"><g id="V"><rect class="cls-2" x="129.73" y="6.15" width="22.78" height="120.66" rx="11.39" transform="translate(286.94 64.87) rotate(157.67)"/><rect class="cls-2" x="167.31" y="6.05" width="22.78" height="120.66" rx="11.39" transform="translate(28.65 -72.41) rotate(22.33)"/><path class="cls-4" d="M201.63,10.54h0a11.39,11.39,0,0,0-14.86,6.21L180.3,32.48h0a11,11,0,0,1,5.81-5.84,10.71,10.71,0,0,1,8.23,0l1.17.48a10.75,10.75,0,0,1,5.86,14l6.47-15.74A11.39,11.39,0,0,0,201.63,10.54Z" transform="translate(-9.98 -9.48)"/></g><g id="a"><rect class="cls-5" x="227.04" y="58.81" width="22.78" height="55" rx="11.39"/><circle class="cls-6" cx="211.47" cy="86.85" r="26.95"/></g><g id="g"><circle class="cls-6" cx="287.38" cy="86.85" r="26.95"/><path class="cls-3" d="M324.32,145.14a14.86,14.86,0,0,1-2.58,6.87,18.8,18.8,0,0,1-7.24,6.51c-4.47,2.18-8.24,3.6-13,3-3.11-.39-10-2.85-13.32-6.36" transform="translate(-9.98 -9.48)"/><path class="cls-4" d="M313.33,142.11c-1.27,8.21-11.57,10.17-17.08,5-10.68-10-26.84,6.05-16.12,16.12,8.08,7.6,20.09,11.68,31,8.84,11.35-3,22.31-11.76,24.17-23.89.93-6.07-1.54-12.26-8-14-5.4-1.48-13.08,1.84-14,8Z" transform="translate(-9.98 -9.48)"/><rect class="cls-5" x="302.95" y="59.35" width="22.78" height="86.6" rx="11.14"/></g><g id="a_cópia" data-name="a cópia"><rect class="cls-5" x="378.86" y="58.81" width="22.78" height="55" rx="11.39"/><circle class="cls-6" cx="363.29" cy="86.85" r="26.95"/></g><g id="S"><path class="cls-5" d="M462.58,72c-11-6.62-25-4.25-31.88,5.69s-4.23,23.86,5.83,31.85Z" transform="translate(-9.98 -9.48)"/><path class="cls-6" d="M423.55,118.87c11.32,7.28,25.82,5.22,32.78-4.81s3.81-24.33-7-32.39Z" transform="translate(-9.98 -9.48)"/></g></g></g></svg>